# xmcd
#
# Track frame offsets:
#	150
#	13355
#	27430
#	43545
#	62157
#	82962
#	109240
#	127870
#	145572
#	160620
#	180842
#	201110
#	221572
#	241530
#	264272
#	281842
#	306957
#
# Disc length: 4425 seconds
#
# Revision: 1
# Processed by: cddbd v1.5.1PL0 Copyright (c) Steve Scherf et al.
# Submitted via: CDex 1.50Beta5
#
DISCID=df114711
DTITLE=河島英五 - 「文明」ベスト&名作集
DYEAR=1994
DGENRE=Pop
TTITLE0=ノウダラの女
TTITLE1=デラシネ酒場
TTITLE2=旅からの便り
TTITLE3=ベナレスの車引き
TTITLE4=バザール
TTITLE5=水瓶の唄
TTITLE6=風の人,火の人,山の人
TTITLE7=祖父の島
TTITLE8=人間の祖先
TTITLE9=酒と泪と男と女
TTITLE10=友よ語ろう
TTITLE11=野風増
TTITLE12=ゴルゴダの丘
TTITLE13=十二月の風に吹かれて
TTITLE14=燃えろジングルベル
TTITLE15=仁醒
TTITLE16=てんびんばかり
EXTD=
EXTT0=
EXTT1=
EXTT2=
EXTT3=
EXTT4=
EXTT5=
EXTT6=
EXTT7=
EXTT8=
EXTT9=
EXTT10=
EXTT11=
EXTT12=
EXTT13=
EXTT14=
EXTT15=
EXTT16=
PLAYORDER=
